# xmcd
#
# Track frame offsets: 
#        150
#        11847
#        25456
#        39013
#        54707
#        66293
#        80397
#        91817
#        105179
#
# Disc length: 1573 seconds
#
# Revision: 0
# Processed by: cddbd v1.5.2PL0 Copyright (c) Steve Scherf et al.
# Submitted via: ExactAudioCopy v0.99pb4
#
DISCID=63062309
DTITLE=Aaron Tippin - You've Got to Stand for Something
DYEAR=1990
DGENRE=Country
TTITLE0=In My Wildest Dreams
TTITLE1=I've Got a Good Memory
TTITLE2=You've Got to Stand for Something
TTITLE3=I Wonder How Far it is Over You
TTITLE4=Ain't That a Hell of a Note
TTITLE5=The Man That Came Between Us (Was Me)
TTITLE6=She Made a Memory Out of Me
TTITLE7=The Sky's Got the Blues
TTITLE8=Many, Many, Many Beers Ago
EXTD=
EXTT0=
EXTT1=
EXTT2=
EXTT3=
EXTT4=
EXTT5=
EXTT6=
EXTT7=
EXTT8=
PLAYORDER=
